<svg xmlns="http://www.w3.org/2000/svg" viewBox="0 0 64 64"><defs><style>.cls-1{fill:#50d9d7;}.cls-2{fill:#93e6e5;}.cls-3{fill:#00bebd;}.cls-4{fill:#ffac00;}.cls-5{fill:#00aaa8;}.cls-6{fill:#ea9807;}.cls-7{fill:#d9d9d9;}</style></defs><title>Color wheel</title><g id="Color_wheel" data-name="Color wheel"><path class="cls-1" d="M30,0V17A11,11,0,0,0,19,28H2A28,28,0,0,1,30,0Z"/><path class="cls-2" d="M30,39V56A28,28,0,0,1,2,28H19A11,11,0,0,0,30,39Z"/><path class="cls-3" d="M58,28H41A11,11,0,0,0,30,17V0A28,28,0,0,1,58,28Z"/><path class="cls-4" d="M41,28A11,11,0,0,1,30,39V60A32,32,0,0,0,62,28Z"/><path class="cls-3" d="M30,8v9A11,11,0,0,0,19,28H10A20,20,0,0,1,30,8Z"/><path class="cls-1" d="M30,39v9A20,20,0,0,1,10,28h9A11,11,0,0,0,30,39Z"/><path class="cls-5" d="M50,28H41A11,11,0,0,0,30,17V8A20,20,0,0,1,50,28Z"/><path class="cls-6" d="M53,28A23,23,0,0,1,30,51V39A11,11,0,0,0,41,28Z"/><path class="cls-6" d="M54.23,48.91a32.74,32.74,0,0,1-7.65,6.47l-2.71-6.91a2,2,0,0,1,1.87-2.73C46.29,45.74,45.84,45.63,54.23,48.91Z"/><polygon class="cls-3" points="45.74 47.74 52.1 64 54.93 56.93 62 54.1 45.74 47.74"/><path class="cls-7" d="M31,20a1,1,0,0,0-2,0A1,1,0,0,0,31,20Z"/><path class="cls-7" d="M31,24a1,1,0,0,0-2,0A1,1,0,0,0,31,24Z"/><path class="cls-7" d="M27,28a1,1,0,0,0-2,0A1,1,0,0,0,27,28Z"/><path class="cls-7" d="M23,28a1,1,0,0,0-2,0A1,1,0,0,0,23,28Z"/><path class="cls-7" d="M39,28a1,1,0,0,0-2,0A1,1,0,0,0,39,28Z"/><path class="cls-7" d="M35,28a1,1,0,0,0-2,0A1,1,0,0,0,35,28Z"/><path class="cls-7" d="M31,28a1,1,0,0,0-2,0A1,1,0,0,0,31,28Z"/><path class="cls-7" d="M31,32a1,1,0,0,0-2,0A1,1,0,0,0,31,32Z"/><path class="cls-7" d="M31,36a1,1,0,0,0-2,0A1,1,0,0,0,31,36Z"/></g></svg>